<?xml version="1.0" encoding="UTF-8"?>
<svg width="112.81mm" height="112.81mm" version="1.1" viewBox="0 0 112.81 112.81" xmlns="http://www.w3.org/2000/svg"><g transform="translate(-48.594 -92.094)"><g transform="translate(13.523 -47.982)"><rect x="35.07" y="140.08" width="112.81" height="112.81" fill="#0000" stroke-width=".24051" style="paint-order:markers fill stroke"/><g fill="#ffec00" stroke="#000" stroke-width=".22725"><path transform="matrix(.26458 0 0 .26458 -13.523 47.982)" d="m358.67 461.23c-11.559 0.84815-22.981 3.0016-34.532 3.9617-8.187 0.91538-16.46 0.85899-24.608 2.154-1.3969 0.31674-0.8972 2.1248 0.23584 2.439 8.2321 4.3397 16.724 8.1552 24.492 13.328 7.0263 4.6401 13.694 9.9996 19.534 16.091 0.35211 0.54547 1.271 1.244 1.0957 1.852-4.2039 2.1296-8.9803 2.7766-13.536 3.813-17.659 3.4569-35.611 5.182-53.544 6.8103-4.6993 0.59335-9.4951 0.80957-14.094 1.9744-1.4385 0.71214-0.22427 2.2626 0.79727 2.6596 7.2785 4.457 14.857 8.351 22.035 12.985 9.9955 6.2896 19.967 12.634 28.734 20.595 6.1533 5.2531 12.004 10.852 18.009 16.264 1.5629 0.55954 1.7168-1.4058 1.1782-2.3872-1.5645-5.7336-2.9078-11.451-2.6471-17.404-0.20141-9.5197 3.6868-19.292 11.452-25.081 4.0701-3.1701 9.4085-3.8636 14.414-3.6004 4.0756-1.6e-4 8.2 0.40194 12.265 0.90023 1.4141 0.33396 3.2413-0.86954 2.5049-2.4263-1.3692-2.4799-3.4997-4.4716-4.8765-6.9686-4.2447-6.9129-8.2365-14.125-10.57-21.931-1.5243-5.8542-1.8786-12.026-0.0795-17.886 0.78018-2.5573 3.067-4.2185 4.2046-6.5434 0.35025-1.5073-1.4012-1.7166-2.4648-1.5991z" style="paint-order:markers fill stroke"/><path transform="matrix(.26458 0 0 .26458 -13.523 47.982)" d="m501.09 403.7c-3.4996 1.4824-6.5315 3.9308-9.7642 5.9165-10.789 7.3327-21.547 14.736-33.03 20.981-12.142 6.6826-24.729 12.728-37.897 17.166-1.0238 0.21325-2.8467 1.2659-1.6793 2.4174 3.4704 1.3638 7.3346 2.3752 10.042 5.149 5.8137 5.1084 9.399 12.586 9.6663 20.326 0.40786 4.9704-0.0519 9.952-0.45488 14.928 0.39755 1.7629 2.2951 0.65244 3.2476 0.0845 5.6136-3.4492 11.71-6.3795 18.269-7.3091 4.1857-0.0493 8.5422-0.64879 12.475 1.124 6.6232 2.5843 10.146 9.4034 12.409 15.753 2.2698 5.9161 1.8062 12.232 2.2022 18.433 0.26197 4.3754 0.0139 8.8026 0.53949 13.149 0.56648 1.446 2.2913 0.50588 2.5366-0.64697 7.3206-15.25 13.796-30.879 21.182-46.1 10.21-21.753 21.742-42.834 33.515-63.774 0.46012-1.2743 2.1445-2.8316 1.0298-4.1572-1.5932-0.74726-3.2038 0.75709-4.6856 1.2226-16.499 8.1605-32.942 16.463-49.557 24.373-5.3402 2.5548-10.676 5.1184-16.059 7.5623 7.8554-12.896 16.179-25.513 23.704-38.609 1.1744-2.2838 2.6437-4.4627 3.5049-6.8838 0.042-0.60397-0.57459-1.2293-1.1934-1.1064z" style="paint-order:markers fill stroke"/><path transform="matrix(.26458 0 0 .26458 -13.523 47.982)" d="m411.89 595.5c-2.2043 3.568-3.8332 7.5294-6.0007 11.152-2.3901 4.2047-4.8102 8.6762-9.0856 11.295-4.4951 3.1824-10.377 3.0002-15.642 2.3104-3.1309-0.46585-6.1808-2.0726-9.3811-2.8209-1.4686 0.11066-1.0376 1.7993-0.46235 2.6262 4.7354 10.053 9.7461 19.987 13.795 30.348 3.6047 8.5247 6.94 17.141 9.1145 26.156 1.9375 7.0878 3.4731 14.302 5.6465 21.315 0.5785 1.3175 2.5528 1.1442 2.9209-0.25293 1.4574-4.3189 1.2775-8.9407 2.1192-13.375 1.4687-9.6153 3.4666-19.153 5.2179-28.733 0.81076-3.2588 1.199-6.813 3.1073-9.6515 0.66313-0.50874 1.3409 0.8633 1.8848 1.1752 7.4681 8.1439 12.118 18.469 16.777 28.408 2.427 5.0052 3.8665 10.389 5.0218 15.807 0.57215 1.4891 0.61385 3.6934 2.2613 4.4189 1.8836 0.0631 2.0799-2.3689 2.63-3.6888 4.2029-14.836 7.8987-29.811 11.927-44.695 2.8415-11.167 5.8446-22.283 8.6836-33.445 0.45867-2.453 1.2393-5.0109 0.81846-7.5112-0.67888-1.4622-2.2173-0.21701-2.851 0.60654-3.0049 3.1154-6.2146 6.2494-10.374 7.7465-4.864 2.1041-10.425 1.6235-15.418 0.17745-7.004-2.3688-12.189-8.0195-16.955-13.408-1.8058-1.9213-3.0427-4.418-5.0493-6.0889-0.23552 0.0428-0.47103 0.0856-0.70655 0.12842z" style="paint-order:markers fill stroke"/></g><path d="m92.71 243.66c-0.26876-1.4251-0.64844-3.246-0.84373-4.0463-0.1953-0.80036-0.73009-3.3007-1.1884-5.5562-1.9292-9.4939-2.6344-11.705-5.6967-17.859-2.259-4.5403-3.3113-6.1067-5.2308-8.9958-1.5829-2.3824-3.2491-4.7289-5.1668-6.8511-1.5343-1.6979-3.273-3.207-5.036-4.666-2.4772-2.05-5.0472-4.0048-7.7641-5.7245-4.5489-2.8791-11.126-6.5023-14.225-7.6468 0 0 2.6449-0.25133 3.9688-0.35992 3.0634-0.25127 6.1324-0.42898 9.1962-0.67474 3.4623-0.27772 7.7737-0.48915 10.381-0.9038 2.228-0.35435 2.7938-0.53351 2.8658-0.9075 0.08333-0.43269-1.2561-1.203-1.9592-1.71-1.7048-1.2294-3.5252-2.319-5.4342-3.1983-3.0348-1.3978-3.4636-1.5249-9.4787-3.2606l-3.0282-0.87382 2.4991-0.0524c4.1486-0.087 12.331-0.61449 16.125-1.0396 1.9645-0.22009 4.5244-0.50787 5.6885-0.63951 1.1642-0.13164 3.1287-0.42621 4.3656-0.65459 1.2369-0.22839 3.261-0.59321 4.4979-0.81071 1.2369-0.21751 2.8443-0.56982 3.5719-0.78291s2.3349-0.67996 3.5719-1.0375c1.9961-0.57698 3.0431-0.93471 6.6146-2.2601 2.8099-1.0428 5.2175-2.4167 7.7165-3.8319 2.2074-1.25 4.3308-2.6489 6.4085-4.1043 3.3595-2.3533 7.7341-5.6349 9.7776-7.4712 0.60528-0.54389 1.1922-0.99037 1.3043-0.99219 0.28362-5e-3 -0.91125 1.7979-1.4008 2.6786-0.53509 0.96265-1.118 1.8979-1.6783 2.8461-0.80727 1.3661-1.6304 2.7229-2.4256 4.096-0.48882 0.84419-0.9644 1.696-1.4416 2.5468-0.50499 0.90028-1.0041 1.8038-1.5044 2.7067-0.20602 0.37179-0.61659 1.0451-0.61659 1.1162 0 0.22407 0.80384-0.12554 5.5562-2.4166 2.5466-1.2277 5.4041-2.5919 6.35-3.0316 0.94589-0.43968 2.0174-0.95694 2.3812-1.1495 2.6706-1.4133 3.9042-1.876 3.9042-1.876s-1.6332 3.1569-2.4938 4.7115c-0.74118 1.3388-1.552 2.699-2.2986 3.974-0.45806 0.78555-0.90229 1.5794-1.3311 2.3812-1.3184 2.4653-2.5687 4.9667-3.8164 7.4685-1.1865 2.3791-2.3554 4.7673-3.4893 7.1719-1.175 2.492-2.3143 5.0009-3.4336 7.5184-1.0541 2.3708-2.177 4.6371-3.0908 7.1438-1.0381 2.8476-2.0463 6.1133-3.5125 11.377-0.46612 1.6735-1.1286 3.9357-1.4721 5.0271s-0.62282 2.2914-0.92464 3.4396c-0.21991 0.83664-0.4157 1.6796-0.64574 2.5136-0.19562 0.70913-0.47115 1.5346-0.62442 2.1167-0.15327 0.58209-0.54044 2.0108-0.86038 3.175-0.31995 1.1642-0.79829 2.9501-1.063 3.9688-0.2647 1.0186-0.91564 3.519-1.4465 5.5562s-1.1847 4.6567-1.453 5.8208c-0.26822 1.1642-0.65695 2.5929-0.86384 3.175l-0.37615 1.0583-0.13508-2.7781c-0.0743-1.528-0.40851-4.17-0.74269-5.8711-0.51565-2.6249-0.87141-3.6242-2.3508-6.6034-0.95878-1.9308-1.8789-3.5508-2.0447-3.6001-0.18414-0.0547-0.46878 0.71306-0.7315 1.9732-0.23654 1.1345-0.67377 3.1434-0.97163 4.4642-0.29785 1.3208-0.65213 3.4639-0.78728 4.7625s-0.37738 3.3136-0.53827 4.4778c-0.1609 1.1642-0.37041 3.3422-0.46558 4.8401l-0.17304 2.7234zm0.4916-12.976c0.09922-1.1278 0.4035-3.1221 0.67617-4.4318 0.27268-1.3097 0.62466-3.2099 0.78218-4.2228s0.47433-2.2375 0.70402-2.7216c0.4043-0.85199 0.43412-0.86514 0.93464-0.41219 0.86577 0.78352 2.1997 2.759 3.1809 4.7107 1.7966 3.5736 2.3063 4.8466 2.6357 6.583 0.18273 0.96325 0.46483 1.7514 0.62689 1.7514 0.31679 0 0.63899-1.7211 0.90758-2.5984 0.46424-1.5162 0.80656-3.0672 1.2146-4.5995 0.50718-1.9044 1.0315-3.8042 1.5335-5.71 0.5502-2.0888 1.0786-4.3919 1.6204-6.2744 1.0863-3.7747 1.177-5.2236 0.24385-3.8912-0.61897 0.88371-2.188 1.9309-3.554 2.2365-1.2801 0.28636-2.6978 0.0333-3.9062-0.477-1.3569-0.57302-2.4051-1.7248-3.4426-2.7704-0.67235-0.6776-1.778-2.2449-1.778-2.2449s-0.3972 0.80182-0.60206 1.1996c-0.33666 0.65364-0.64948 1.3214-1.0304 1.9503-0.45729 0.75499-0.86917 1.5655-1.502 2.1808-0.53994 0.52495-1.1799 0.99524-1.8959 1.2286-0.96381 0.31416-2.0311 0.29746-3.0365 0.16775-1.0124-0.13061-2.9147-0.93945-2.9147-0.93945s0.7493 1.5497 1.1243 2.3244c0.41242 0.85188 0.84574 1.6939 1.2381 2.5552 0.54594 1.1984 1.0547 2.4137 1.552 3.633 0.59492 1.4586 1.2195 2.9085 1.7125 4.4047 0.49547 1.5036 0.84416 3.0517 1.2477 4.5826 0.30278 1.1485 0.79101 3.1984 0.88049 3.4528 0.08948 0.2544 0.19348 0.38288 0.3111 0.38288 0.25121 0 0.40809-0.60053 0.53566-2.0505zm-2.8783-20.345c0.414-0.21086 0.80033-0.49542 1.1128-0.83922 0.54703-0.6018 0.9009-1.3578 1.277-2.0789 0.47203-0.90487 0.86883-1.8498 1.2227-2.8071 0.20095-0.54368 0.3718-1.0996 0.50935-1.6626 0.15584-0.63795 0.35639-1.9376 0.35639-1.9376s1.205 2.3487 1.9952 3.3979c0.87932 1.1676 1.8209 2.3439 3.021 3.1782 1.111 0.77237 2.3803 1.6568 3.7321 1.5967 1.3144-0.0585 2.5052-0.98165 3.4766-1.869 1.216-1.1106 1.9998-2.6428 2.723-4.1223 1.3461-2.7538 2.1892-5.741 2.9409-8.7125 0.48654-1.9233 0.87324-3.8865 1.007-5.8658 0.10169-1.5052 0.0525-3.0294-0.15881-4.5231-0.19312-1.3653-0.33121-2.7958-1.0072-4.0123-0.61362-1.1044-1.7327-2.0381-2.9485-2.3815-1.1658-0.32934-2.4743 0.0297-3.6042 0.46665-1.2913 0.49938-2.3784 1.4492-3.4061 2.3769-1.2323 1.1124-2.1697 2.5133-3.2519 3.7722-0.34075 0.3964-1.0206 1.1906-1.0206 1.1906s0.23703-0.94666 0.3737-1.415c0.31917-1.0936 0.70524-2.1667 1.0417-3.2551 0.26411-0.85443 0.56329-1.7002 0.76683-2.571 0.21355-0.91368 0.40698-1.8388 0.47442-2.7746 0.071-0.98498 0.20757-2.0155-0.0754-2.9616-0.31371-1.0487-0.89955-2.0797-1.7328-2.7896-0.72243-0.61543-1.7014-0.88714-2.6265-1.0988-1.3376-0.30609-2.7428-0.33125-4.1105-0.22094-2.0345 0.1641-4.0857 0.50394-5.9829 1.3044-2.9499 1.2446-4.3931 3.0486-4.1413 5.1767 0.15462 1.3068 1.0242 3.9254 1.9793 5.6929 1.1182 2.0695 2.8151 3.7714 4.3054 5.5913 0.56458 0.68946 1.7549 2.0167 1.7549 2.0167s-3.0952-1.2212-4.7282-1.4379c-2.2825-0.30288-4.8252-0.77321-6.904 0.21661-1.1274 0.5368-1.9673 1.6815-2.4515 2.8325-0.60974 1.4494-0.56724 3.1384-0.39121 4.701 0.16514 1.4659 0.74353 2.8684 1.3391 4.218 0.57284 1.2982 1.4422 2.4799 2.1289 3.6862 0.63983 1.124 1.4674 2.1329 2.2751 3.143 1.0517 1.3151 2.0559 2.701 3.3406 3.7896 0.52146 0.44183 1.1093 0.82113 1.7398 1.085 0.43768 0.18314 0.91134 0.29298 1.3842 0.33141 0.37691 0.0306 0.75972-0.0132 1.1315-0.0826 0.3878-0.0723 0.78047-0.16619 1.132-0.34523zm-16.186-16.037c-0.12692-1.2673-0.14448-2.5753 0.13205-3.8185 0.24255-1.0904 0.61025-2.1354 1.3148-3.0826 1.1604-1.56 2.448-2.6773 5.1787-2.6839 1.0186-2e-3 2.3581 0.0953 2.9766 0.21724 1.2763 0.25163 1.4763-0.0687 0.62334-0.99839-0.74921-0.81661-2.6468-4.105-3.4417-6.3899-0.32791-0.94254-0.5116-1.95-0.52284-2.9478-0.01042-0.9256 0.06688-1.8902 0.42327-2.7445 0.24412-0.58519 1.132-1.4306 1.132-1.5287 0-0.23692-1.5087-0.10656-5.8208 0.50294-1.9645 0.27768-5.1495 0.58634-7.0776 0.68592-1.9282 0.0996-3.5057 0.26604-3.5057 0.36993 0 0.0519 0.18604 0.1817 0.48576 0.34892 0.29972 0.16722 0.71314 0.3719 1.1679 0.57367 1.6671 0.73966 4.6227 2.3372 6.6877 3.879 1.5045 1.1233 4.0941 3.4102 4.0941 3.8685 0 0.6916-8.1301 2.1739-14.949 2.7255-5.7853 0.46799-6.9051 0.81392-6.9051 0.81392-0.07973 0.12901 0.88523 0.61199 1.3438 0.89297 0.64779 0.39692 1.3346 0.72721 1.9859 1.1185 2.6768 1.6082 5.3811 3.1914 7.8919 5.0482 1.7699 1.3089 3.3914 2.809 5.0319 4.2769 0.8899 0.79621 2.6081 2.4558 2.6081 2.4558s-0.7326-2.3616-0.85498-3.5835zm43.009-8.6229c0.88415-1.8352 1.6471-3.7266 2.5004-5.5763 1.0704-2.3204 2.1573-4.6335 3.2855-6.9264 0.69048-1.4033 1.4047-2.7949 2.1316-4.1796 1.1804-2.2487 2.4101-4.4712 3.6205-6.7039 0.69655-1.2849 2.1945-3.7526 2.0957-3.8514-0.0988-0.0988-1.1537 0.33172-2.3442 0.95678-6.5373 3.4323-16.751 8.1701-16.751 8.1701 0.21424-0.34731 0.44345-0.74853 0.67121-1.1191 0.57148-0.92992 1.1664-1.8452 1.7445-2.7711 0.57666-0.9235 1.1494-1.8495 1.7198-2.7768 0.70239-1.142 1.4252-2.2719 2.0966-3.4324 0.51873-0.89662 1.4916-2.7262 1.4916-2.7262s-1.0601 0.62161-1.5785 0.95132c-1.1085 0.70505-2.3601 1.5572-3.2735 2.1948s-1.8659 1.2787-2.1167 1.4249c-0.25079 0.1462-1.3689 0.89034-2.6559 1.6536-1.287 0.7633-1.5054 0.88529-2.273 1.3012-1.074 0.58196-2.1621 1.1384-3.2618 1.6702-1.213 0.58662-2.4298 1.1692-3.6781 1.6765-1.1601 0.47144-3.5362 1.268-3.5362 1.268s1.4001 0.33109 2.0087 0.69346c0.83113 0.49485 1.5653 1.182 2.1397 1.9602 0.57921 0.78463 0.99826 1.7024 1.2532 2.6438 0.28926 1.0681 0.28762 2.2007 0.28618 3.3073-1e-3 0.82912-0.22089 2.4776-0.22089 2.4776s0.72148-0.34668 1.3891-0.7704c1.4445-0.91684 3.6734-1.6114 5.1644-1.6094 2.7923 4e-3 4.3819 1.1939 5.5747 4.1736 0.62563 1.5628 0.71667 2.1854 0.7816 5.3453 0.0404 1.9671 0.0931 3.636 0.11719 3.7088 0.12197 0.36914 1.1072-2.0753 1.6176-3.1345z" stroke="#000" stroke-width=".070004"/></g></g></svg>
